<svg width="25" height="24" viewBox="0 0 25 24" fill="none" xmlns="http://www.w3.org/2000/svg">
<path d="M14.9159 14.252V16.342C14.0108 16.022 13.0422 15.9239 12.0913 16.0558C11.1404 16.1877 10.2351 16.5459 9.45132 17.1002C8.66756 17.6545 8.02824 18.3888 7.58706 19.2414C7.14587 20.094 6.91571 21.04 6.91589 22L4.91589 21.999C4.91558 20.7779 5.19481 19.5729 5.73219 18.4764C6.26957 17.3799 7.05083 16.4209 8.01611 15.673C8.98139 14.9251 10.1051 14.4081 11.301 14.1616C12.497 13.9152 13.7336 13.9457 14.9159 14.251V14.252ZM12.9159 13C9.60089 13 6.91589 10.315 6.91589 7C6.91589 3.685 9.60089 1 12.9159 1C16.2309 1 18.9159 3.685 18.9159 7C18.9159 10.315 16.2309 13 12.9159 13ZM12.9159 11C15.1259 11 16.9159 9.21 16.9159 7C16.9159 4.79 15.1259 3 12.9159 3C10.7059 3 8.91589 4.79 8.91589 7C8.91589 9.21 10.7059 11 12.9159 11ZM18.9159 17V14H20.9159V17H23.9159V19H20.9159V22H18.9159V19H15.9159V17H18.9159Z" fill="white"/>
</svg>
