<svg width="50" height="50" viewBox="0 0 50 50" fill="none" xmlns="http://www.w3.org/2000/svg">
<path d="M48.2998 33.1659L41.6641 11.0475C41.5312 10.6017 41.3003 10.1912 40.9881 9.84625C40.6759 9.50131 40.2904 9.23066 39.86 9.05416L39.7549 9.0862L39.8623 9.0487C37.6845 8.16073 35.4255 7.48653 33.1172 7.03561C32.9159 6.9956 32.7088 6.99562 32.5075 7.03567C32.3063 7.07572 32.1149 7.15501 31.9443 7.26903C31.7737 7.38304 31.6272 7.52954 31.5132 7.70017C31.3993 7.87079 31.32 8.06219 31.28 8.26344C31.24 8.4647 31.24 8.67186 31.28 8.8731C31.3201 9.07435 31.3994 9.26574 31.5134 9.43634C31.6274 9.60694 31.7739 9.75341 31.9445 9.86739C32.1152 9.98138 32.3066 10.0606 32.5078 10.1006C33.3836 10.2747 34.2419 10.4796 35.0828 10.7153C35.4121 10.8779 35.6733 11.1516 35.8204 11.4881C35.9676 11.8246 35.9911 12.2022 35.887 12.5544C35.7828 12.9065 35.5576 13.2106 35.2511 13.4129C34.9446 13.6152 34.5765 13.7027 34.2117 13.66C28.2385 12.1255 21.9759 12.1132 15.9967 13.6243C15.6252 13.7156 15.2331 13.6673 14.8949 13.4887C14.5566 13.31 14.2957 13.0134 14.1616 12.6552C14.0275 12.2969 14.0296 11.9019 14.1675 11.5451C14.3054 11.1882 14.5694 10.8944 14.9096 10.7194L14.9162 10.7217C15.7566 10.4863 16.616 10.2811 17.4943 10.1061C17.9008 10.0253 18.2585 9.78634 18.4888 9.44178C18.7191 9.09722 18.8031 8.67529 18.7223 8.26881C18.6415 7.86234 18.4025 7.50461 18.0579 7.27433C17.7134 7.04405 17.2914 6.96008 16.885 7.04088C14.5767 7.49185 12.3177 8.16605 10.1398 9.05397C9.70939 9.2305 9.32392 9.50116 9.0117 9.84609C8.69949 10.191 8.46846 10.6015 8.33555 11.0473L1.7002 33.1659C1.52881 33.7446 1.52767 34.3604 1.69694 34.9397C1.8662 35.519 2.1987 36.0373 2.65469 36.4327C2.84102 36.5948 3.03223 36.754 3.22598 36.9116C3.23067 36.9153 3.23457 36.9194 3.23907 36.9233C6.40899 39.4948 10.5639 41.4594 15.2545 42.6044C15.6556 42.6984 16.0776 42.6303 16.4287 42.4148C16.7798 42.1993 17.0316 41.8539 17.1293 41.4537C17.227 41.0535 17.1627 40.6309 16.9503 40.2778C16.738 39.9248 16.3948 39.6699 15.9955 39.5686C13.8861 39.0615 11.835 38.3372 9.875 37.4071L9.8877 37.4081C9.61267 37.1589 9.43533 36.82 9.38745 36.452C9.33957 36.084 9.42428 35.711 9.6264 35.3998C9.82852 35.0885 10.1349 34.8595 10.4905 34.7535C10.8462 34.6476 11.2279 34.6718 11.5674 34.8217C15.2754 36.4735 19.9342 37.5001 25 37.5001C30.0658 37.5001 34.7279 36.4721 38.4359 34.8204C38.7755 34.6713 39.157 34.6479 39.5122 34.7543C39.8674 34.8607 40.1732 35.0901 40.3748 35.4013C40.5764 35.7126 40.6607 36.0854 40.6126 36.4531C40.5645 36.8208 40.3872 37.1594 40.1123 37.4083L40.125 37.4071C38.165 38.3372 36.1139 39.0615 34.0045 39.5686C33.8036 39.6158 33.614 39.7022 33.4467 39.823C33.2794 39.9438 33.1376 40.0966 33.0297 40.2725C32.9217 40.4484 32.8497 40.6439 32.8177 40.8478C32.7857 41.0517 32.7945 41.2599 32.8434 41.4603C32.8924 41.6608 32.9805 41.8496 33.1028 42.0159C33.2251 42.1821 33.3792 42.3224 33.556 42.4288C33.7329 42.5352 33.929 42.6054 34.1332 42.6356C34.3374 42.6657 34.5455 42.6551 34.7455 42.6044C39.4361 41.4594 43.591 39.4948 46.7609 36.9233C46.7656 36.9194 46.7697 36.9151 46.7744 36.9112C46.9682 36.7538 47.1592 36.5946 47.3455 36.4327C47.8015 36.0373 48.1339 35.519 48.3032 34.9396C48.4724 34.3603 48.4712 33.7446 48.2998 33.1659ZM18.75 30.4688C18.2865 30.4688 17.8333 30.3314 17.4479 30.0738C17.0625 29.8163 16.7621 29.4502 16.5847 29.022C16.4073 28.5937 16.3609 28.1225 16.4513 27.6678C16.5417 27.2132 16.7649 26.7956 17.0927 26.4678C17.4205 26.14 17.8381 25.9168 18.2928 25.8263C18.7474 25.7359 19.2187 25.7823 19.6469 25.9597C20.0752 26.1371 20.4412 26.4375 20.6988 26.8229C20.9563 27.2084 21.0938 27.6615 21.0938 28.1251C21.0938 28.7467 20.8468 29.3428 20.4073 29.7823C19.9677 30.2219 19.3716 30.4688 18.75 30.4688ZM31.25 30.4688C30.7865 30.4688 30.3333 30.3314 29.9479 30.0738C29.5625 29.8163 29.2621 29.4502 29.0847 29.022C28.9073 28.5937 28.8609 28.1225 28.9513 27.6678C29.0417 27.2132 29.2649 26.7956 29.5927 26.4678C29.9205 26.14 30.3381 25.9168 30.7928 25.8263C31.2474 25.7359 31.7187 25.7823 32.1469 25.9597C32.5752 26.1371 32.9412 26.4375 33.1988 26.8229C33.4563 27.2084 33.5938 27.6615 33.5938 28.1251C33.5938 28.7467 33.3468 29.3428 32.9073 29.7823C32.4677 30.2219 31.8716 30.4688 31.25 30.4688Z" fill="white"/>
</svg>
