<svg width="52" height="52" viewBox="0 0 52 52" fill="none" xmlns="http://www.w3.org/2000/svg">
<path d="M48.0645 25.6445L27.1478 4.74297C26.9971 4.59207 26.8183 4.47235 26.6213 4.39066C26.4244 4.30898 26.2133 4.26694 26.0001 4.26694C25.7869 4.26694 25.5758 4.30898 25.3789 4.39066C25.1819 4.47235 25.003 4.59207 24.8524 4.74297L3.93564 25.6445C3.32627 26.2539 2.98096 27.0816 2.98096 27.9449C2.98096 29.7375 4.43838 31.1949 6.23096 31.1949H8.43486V46.1094C8.43486 47.0082 9.16104 47.7344 10.0599 47.7344H22.7501V36.3594H28.4376V47.7344H41.9403C42.8392 47.7344 43.5653 47.0082 43.5653 46.1094V31.1949H45.7692C46.6325 31.1949 47.4603 30.8547 48.0696 30.2402C49.3341 28.9707 49.3341 26.9141 48.0645 25.6445Z" fill="white"/>
</svg>
