<svg width="50" height="50" viewBox="0 0 50 50" fill="none" xmlns="http://www.w3.org/2000/svg">
<path d="M45.3125 0H4.6875C2.10938 0 0 2.10938 0 4.6875V45.3125C0 47.8906 2.10938 50 4.6875 50H45.3125C47.8906 50 50 47.8906 50 45.3125V4.6875C50 2.10938 47.8906 0 45.3125 0ZM34.375 7.8125C34.375 6.95312 35.0781 6.25 35.9375 6.25H42.1875C43.0469 6.25 43.75 6.95312 43.75 7.8125V14.0625C43.75 14.9219 43.0469 15.625 42.1875 15.625H35.9375C35.5234 15.6242 35.1264 15.4593 34.8336 15.1664C34.5407 14.8736 34.3758 14.4766 34.375 14.0625V7.8125ZM25 15.625C27.4445 15.6881 29.7677 16.7035 31.4743 18.4548C33.1809 20.2061 34.136 22.5547 34.136 25C34.136 27.4453 33.1809 29.7939 31.4743 31.5452C29.7677 33.2965 27.4445 34.3119 25 34.375C22.5555 34.3119 20.2323 33.2965 18.5257 31.5452C16.8191 29.7939 15.864 27.4453 15.864 25C15.864 22.5547 16.8191 20.2061 18.5257 18.4548C20.2323 16.7035 22.5555 15.6881 25 15.625ZM43.75 42.1875C43.75 43.0469 43.0469 43.75 42.1875 43.75H7.8125C7.39835 43.7492 7.0014 43.5843 6.70856 43.2914C6.41571 42.9986 6.25083 42.6016 6.25 42.1875V21.875H9.6875C9.22346 24.1455 9.27038 26.4908 9.82486 28.7409C10.3793 30.991 11.4275 33.0896 12.8933 34.8845C14.3592 36.6794 16.206 38.1257 18.3 39.1186C20.3939 40.1115 22.6826 40.626 25 40.625C27.3174 40.626 29.6061 40.1115 31.7 39.1186C33.794 38.1257 35.6408 36.6794 37.1067 34.8845C38.5725 33.0896 39.6207 30.991 40.1751 28.7409C40.7296 26.4908 40.7765 24.1455 40.3125 21.875H43.75V42.1875Z" fill="white"/>
</svg>
