<svg width="50" height="50" viewBox="0 0 50 50" fill="none" xmlns="http://www.w3.org/2000/svg">
<path d="M21.6597 39.1603C21.1764 39.8437 20.7188 40.1805 20.2813 40.1805C19.9896 40.1805 19.8236 40.0096 19.7708 39.6707C19.75 39.6006 19.75 39.3346 19.75 38.8235V29.9624H17.5708V39.4791C17.5708 40.3298 17.6431 40.9034 17.7632 41.268C17.9806 41.8777 18.4653 42.1631 19.1681 42.1631C19.9694 42.1631 20.7931 41.6791 21.659 40.6846V41.9978H23.8417V29.9631H21.6597V39.1603Z" fill="white"/>
<path d="M9.6507 28.1194H12.216V41.998H14.641V28.1194H17.2535V25.8457H9.6507V28.1194Z" fill="white"/>
<path d="M24.5007 17.5972C25.2111 17.5972 25.5514 17.0347 25.5514 15.9089V10.7922C25.5514 9.66785 25.2111 9.10742 24.5007 9.10742C23.7896 9.10742 23.4486 9.66785 23.4486 10.7922V15.9089C23.4493 17.034 23.7896 17.5972 24.5007 17.5972Z" fill="white"/>
<path d="M30.1625 29.8161C29.3611 29.8161 28.6139 30.255 27.9104 31.1216V25.8459H25.7292V41.998H27.9104V40.83C28.6382 41.7321 29.3875 42.1633 30.1625 42.1633C31.0312 42.1633 31.6146 41.7064 31.9062 40.8112C32.0514 40.3008 32.1257 39.4994 32.1257 38.3862V33.5939C32.1257 32.455 32.0514 31.6591 31.9062 31.1751C31.6139 30.273 31.0312 29.8161 30.1625 29.8161ZM29.9451 38.5571C29.9451 39.6439 29.625 40.18 28.9965 40.18C28.6382 40.18 28.2743 40.0091 27.9097 39.6446V32.3084C28.2743 31.9494 28.6375 31.7786 28.9965 31.7786C29.6257 31.7786 29.9451 32.3355 29.9451 33.4209V38.5571Z" fill="white"/>
<path d="M37.1076 29.8159C35.9951 29.8159 35.1257 30.2263 34.4965 31.0507C34.0326 31.6583 33.8222 32.5986 33.8222 33.884V38.1007C33.8222 39.3785 34.0597 40.3292 34.5229 40.9299C35.1528 41.7515 36.0208 42.1626 37.1625 42.1626C38.3014 42.1626 39.1951 41.7313 39.7993 40.8591C40.0657 40.4673 40.2397 40.0202 40.3083 39.5515C40.3278 39.3327 40.3549 38.848 40.3549 38.1466V37.8271H38.1292C38.1292 38.7021 38.1021 39.1862 38.0819 39.3049C37.9576 39.8876 37.6437 40.1792 37.1076 40.1792C36.359 40.1792 35.9951 39.6237 35.9951 38.5098V36.3764H40.3556V33.8833C40.3556 32.5972 40.1368 31.6576 39.6806 31.05C39.0701 30.2256 38.2021 29.8159 37.1076 29.8159ZM38.175 34.5618H35.9951V33.4486C35.9951 32.3361 36.359 31.7791 37.0882 31.7791C37.8097 31.7791 38.175 32.3361 38.175 33.4486V34.5618Z" fill="white"/>
<path d="M45.1389 0H4.86111C2.1875 0 0 2.1875 0 4.86111V45.1389C0 47.8125 2.1875 50 4.86111 50H45.1389C47.8125 50 50 47.8125 50 45.1389V4.86111C50 2.1875 47.8125 0 45.1389 0ZM29.5694 7.27083H31.766V16.2236C31.766 16.7417 31.766 17.0104 31.7931 17.0812C31.8417 17.4229 32.0139 17.5972 32.3097 17.5972C32.75 17.5972 33.2132 17.2556 33.7014 16.5653V7.27083H35.9056V19.4306H33.7014V18.1042C32.8243 19.1104 31.9875 19.5993 31.184 19.5993C30.4743 19.5993 29.9847 19.3111 29.7646 18.6944C29.6431 18.3271 29.5694 17.7444 29.5694 16.8861V7.27083ZM21.2451 11.2347C21.2451 9.93542 21.4667 8.98472 21.9354 8.37014C22.5451 7.53958 23.4035 7.12361 24.5007 7.12361C25.6049 7.12361 26.4618 7.53958 27.0722 8.37014C27.5333 8.98472 27.7563 9.93542 27.7563 11.2347V15.4951C27.7563 16.7868 27.534 17.7451 27.0722 18.3556C26.4618 19.184 25.6056 19.6 24.5007 19.6C23.4028 19.6 22.5444 19.184 21.9354 18.3556C21.4667 17.7451 21.2451 16.7868 21.2451 15.4951V11.2347ZM15.3521 3.1125L17.0875 9.52014L18.7535 3.1125H21.2243L18.2854 12.8222V19.4306H15.841V12.8222C15.6201 11.65 15.1312 9.93472 14.3479 7.65903C13.8326 6.14514 13.2958 4.62431 12.7812 3.1125H15.3521ZM42.4118 42.7208C41.9715 44.6396 40.4007 46.0549 38.5118 46.2653C34.0368 46.7653 29.5083 46.7681 25 46.7653C20.491 46.7681 15.9625 46.7653 11.4882 46.2653C9.59861 46.0542 8.03056 44.6389 7.58958 42.7208C6.96111 39.9875 6.96111 37.0042 6.96111 34.1917C6.96111 31.3764 6.96806 28.3951 7.59722 25.6611C8.0375 23.7431 9.60625 22.3285 11.4958 22.1174C15.9701 21.616 20.4986 21.6146 25.0076 21.616C29.516 21.6146 34.0444 21.616 38.5194 22.1174C40.4076 22.3285 41.9778 23.7431 42.4187 25.6611C43.0472 28.3958 43.0438 31.3764 43.0438 34.1917C43.0444 37.0042 43.041 39.9875 42.4118 42.7208Z" fill="white"/>
</svg>
